<svg xmlns="http://www.w3.org/2000/svg" viewBox="0 0 192 192" width="192" height="192">
  <defs>
    <linearGradient id="bg-gradient" x1="0%" y1="0%" x2="100%" y2="100%">
      <stop offset="0%" style="stop-color:#3b82f6;stop-opacity:1" />
      <stop offset="100%" style="stop-color:#2563eb;stop-opacity:1" />
    </linearGradient>
  </defs>

  <!-- Background -->
  <rect width="192" height="192" fill="url(#bg-gradient)"/>

  <!-- Robot Icon -->
  <g fill="#ffffff">
    <!-- Antenna -->
    <rect x="90" y="35" width="12" height="15" rx="2"/>
    <circle cx="96" cy="30" r="6"/>

    <!-- Head -->
    <rect x="65" y="50" width="62" height="50" rx="12"/>

    <!-- Eyes -->
    <circle cx="82" cy="70" r="6" fill="#3b82f6"/>
    <circle cx="110" cy="70" r="6" fill="#3b82f6"/>

    <!-- Smile -->
    <path d="M 80 88 Q 96 95 112 88" stroke="#3b82f6" stroke-width="4" fill="none" stroke-linecap="round"/>

    <!-- Body -->
    <rect x="60" y="105" width="72" height="55" rx="8"/>

    <!-- Chest Panel -->
    <rect x="78" y="120" width="36" height="28" rx="4" fill="#2563eb"/>
    <circle cx="96" cy="134" r="4" fill="#60a5fa"/>

    <!-- Arms -->
    <rect x="42" y="110" width="14" height="38" rx="7"/>
    <rect x="136" y="110" width="14" height="38" rx="7"/>

    <!-- Legs -->
    <rect x="70" y="160" width="18" height="20" rx="4"/>
    <rect x="104" y="160" width="18" height="20" rx="4"/>
  </g>
</svg>
